<svg role="img" aria-label="Иконка крестик" viewBox="0 0 24 24" fill="none" xmlns="http://www.w3.org/2000/svg">
<path fill-rule="evenodd" clip-rule="evenodd" d="M5.18639 5.18639C5.4349 4.93787 5.83783 4.93787 6.08634 5.18639L12 11.1L17.9137 5.18639C18.1622 4.93787 18.5651 4.93787 18.8136 5.18639C19.0621 5.4349 19.0621 5.83783 18.8136 6.08634L12.9 12L18.8136 17.9137C19.0621 18.1622 19.0621 18.5651 18.8136 18.8136C18.5651 19.0621 18.1622 19.0621 17.9137 18.8136L12 12.9L6.08634 18.8136C5.83783 19.0621 5.4349 19.0621 5.18639 18.8136C4.93787 18.5651 4.93787 18.1622 5.18639 17.9137L11.1 12L5.18639 6.08634C4.93787 5.83783 4.93787 5.4349 5.18639 5.18639Z" fill="currentColor"/>
</svg>
